<?xml version="1.0" standalone="no"?>
<!DOCTYPE svg PUBLIC "-//W3C//DTD SVG 20010904//EN"
 "http://www.w3.org/TR/2001/REC-SVG-20010904/DTD/svg10.dtd">
<svg version="1.0" xmlns="http://www.w3.org/2000/svg"
 width="840.000000pt" height="859.000000pt" viewBox="0 0 840.000000 859.000000"
 preserveAspectRatio="xMidYMid meet">

<g transform="translate(0.000000,859.000000) scale(0.100000,-0.100000)"
fill="#000000" stroke="none">
<path d="M3855 8538 c-87 -5 -162 -12 -165 -17 -3 -4 -61 -13 -130 -20 -69 -8
-127 -17 -130 -21 -3 -4 -47 -13 -97 -20 -51 -7 -93 -16 -93 -20 0 -4 -36 -13
-80 -21 -44 -7 -80 -16 -80 -20 0 -4 -29 -12 -65 -19 -36 -7 -65 -16 -65 -20
0 -4 -27 -13 -60 -20 -33 -7 -60 -16 -60 -20 0 -4 -27 -13 -60 -20 -33 -7 -60
-16 -60 -20 0 -4 -12 -11 -27 -15 -15 -3 -47 -15 -70 -26 -24 -11 -57 -22 -73
-26 -17 -3 -30 -9 -30 -13 0 -5 -17 -14 -37 -20 -21 -7 -45 -18 -53 -25 -8 -7
-28 -16 -45 -19 -16 -4 -37 -13 -45 -21 -8 -7 -32 -18 -52 -25 -21 -6 -38 -15
-38 -20 0 -5 -16 -14 -35 -21 -19 -7 -35 -16 -35 -19 0 -4 -18 -13 -39 -20
-22 -7 -42 -19 -45 -25 -2 -7 -18 -16 -35 -20 -17 -4 -31 -11 -31 -16 0 -6
-13 -15 -30 -20 -16 -6 -30 -14 -30 -19 0 -4 -13 -13 -30 -20 -16 -7 -30 -16
-30 -21 0 -4 -9 -11 -20 -14 -11 -3 -26 -12 -33 -18 -25 -24 -106 -77 -116
-77 -6 0 -11 -4 -11 -9 0 -5 -15 -18 -32 -30 -70 -44 -79 -51 -151 -116 -21
-19 -42 -35 -46 -35 -7 0 -38 -28 -191 -171 -97 -90 -85 -79 -207 -204 -51
-52 -93 -98 -93 -103 0 -4 -14 -20 -31 -36 -17 -17 -43 -47 -56 -68 -14 -21
-30 -38 -34 -38 -5 0 -9 -7 -9 -15 0 -8 -9 -20 -20 -27 -11 -7 -20 -17 -20
-21 0 -5 -11 -23 -25 -41 -14 -17 -33 -42 -42 -55 -10 -13 -26 -32 -35 -42
-10 -11 -18 -22 -18 -26 0 -3 -10 -20 -23 -37 -13 -17 -26 -39 -30 -48 -3 -10
-10 -18 -15 -18 -4 0 -14 -16 -22 -35 -8 -19 -17 -35 -21 -35 -3 0 -12 -13
-19 -30 -7 -16 -16 -30 -19 -30 -4 0 -13 -16 -21 -35 -8 -19 -17 -35 -21 -35
-4 0 -10 -11 -13 -24 -3 -14 -12 -31 -19 -38 -18 -19 -167 -324 -167 -342 0
-9 -4 -16 -8 -16 -5 0 -14 -19 -21 -42 -7 -23 -19 -51 -26 -62 -7 -12 -16 -36
-20 -53 -4 -18 -10 -33 -15 -33 -4 0 -11 -17 -15 -37 -4 -21 -13 -51 -20 -68
-8 -16 -19 -50 -25 -75 -7 -25 -15 -49 -20 -55 -4 -5 -13 -35 -20 -65 -7 -30
-16 -60 -21 -65 -4 -6 -13 -41 -20 -78 -7 -37 -15 -67 -19 -67 -4 0 -13 -43
-20 -95 -7 -52 -16 -95 -20 -95 -22 0 -30 -229 -30 -811 0 -584 8 -793 30
-809 4 -3 13 -47 20 -97 7 -51 16 -93 20 -93 4 0 13 -33 20 -72 7 -40 16 -75
20 -78 5 -3 14 -34 21 -70 7 -36 16 -67 20 -70 3 -3 12 -30 19 -60 7 -30 19
-60 26 -67 7 -7 15 -31 19 -53 4 -22 10 -40 14 -40 4 0 13 -23 21 -52 7 -29
19 -58 26 -66 7 -7 16 -28 20 -47 3 -19 10 -35 15 -35 5 0 9 -5 9 -11 0 -6 25
-62 55 -124 30 -63 55 -118 55 -124 0 -6 4 -11 9 -11 5 0 15 -16 21 -35 6 -19
15 -35 19 -35 4 0 13 -16 21 -35 8 -19 16 -35 20 -35 3 0 12 -16 19 -35 7 -19
16 -35 21 -35 5 0 12 -10 16 -22 4 -13 17 -37 30 -54 13 -17 24 -36 24 -42 0
-7 5 -12 10 -12 6 0 14 -8 17 -17 4 -10 17 -32 30 -49 13 -17 23 -36 23 -41 0
-6 7 -13 15 -17 8 -3 15 -11 15 -18 0 -8 8 -21 17 -30 10 -9 29 -33 43 -53 14
-20 33 -44 42 -53 10 -9 18 -22 18 -30 0 -7 7 -15 15 -19 9 -3 22 -18 30 -33
8 -15 30 -45 50 -66 19 -22 61 -67 93 -102 79 -87 239 -246 313 -312 34 -30
79 -72 101 -93 22 -20 50 -42 61 -49 12 -6 28 -19 35 -30 7 -10 20 -18 28 -18
8 0 14 -4 14 -9 0 -5 15 -18 33 -30 17 -11 41 -26 52 -33 11 -7 26 -21 33 -31
7 -9 20 -17 28 -17 8 0 17 -7 20 -15 4 -8 11 -15 17 -15 5 0 24 -10 41 -23 17
-13 39 -26 49 -30 9 -3 17 -10 17 -15 0 -4 16 -14 35 -22 19 -8 35 -17 35 -21
0 -3 14 -12 30 -19 17 -7 30 -16 30 -19 0 -4 16 -13 35 -21 19 -8 35 -16 35
-19 0 -4 15 -12 33 -20 17 -8 34 -17 37 -21 5 -6 265 -135 330 -163 19 -8 61
-27 93 -41 32 -14 73 -28 92 -32 19 -3 35 -10 35 -14 0 -5 25 -14 55 -21 30
-7 55 -15 55 -19 0 -4 25 -12 55 -19 30 -7 57 -16 60 -21 2 -4 34 -13 70 -20
36 -7 65 -16 65 -20 0 -4 36 -13 80 -20 44 -7 80 -16 80 -20 0 -5 41 -14 90
-21 50 -6 90 -15 90 -19 0 -4 53 -13 118 -19 64 -7 126 -16 137 -21 32 -14
322 -30 540 -30 222 0 509 16 540 29 11 5 73 15 138 21 64 7 117 16 117 20 0
4 41 13 90 19 50 7 90 17 90 22 0 5 11 9 24 9 31 0 129 22 136 30 3 3 32 12
65 19 33 7 65 17 70 21 6 4 30 13 55 20 25 6 59 17 75 25 17 7 47 16 68 20 20
4 37 11 37 15 0 5 14 11 31 15 17 4 56 18 88 32 31 14 72 32 91 40 58 25 325
156 330 162 3 3 19 13 35 21 17 8 32 17 35 21 3 3 20 11 38 18 17 8 32 17 32
21 0 5 14 13 30 19 16 5 30 14 30 19 0 4 16 14 35 22 19 8 35 17 35 22 0 4 15
14 33 21 17 8 38 21 46 30 7 10 20 17 27 17 8 0 14 5 14 10 0 6 11 15 25 20
14 5 25 14 25 19 0 6 15 17 33 26 18 8 48 29 66 45 18 17 36 30 41 30 5 0 15
8 22 18 7 11 24 25 38 32 14 7 31 21 38 32 7 10 17 18 22 18 5 0 34 25 64 55
30 30 57 55 60 55 13 0 376 375 376 388 0 4 14 20 30 35 17 16 30 35 30 43 0
8 4 14 9 14 5 0 42 45 82 101 41 56 82 108 92 117 9 9 17 22 17 30 0 7 6 15
13 18 8 3 20 20 27 39 8 19 18 35 22 35 5 0 13 11 18 25 5 14 14 25 19 25 5 0
12 14 16 31 4 17 13 33 20 35 7 3 16 16 19 29 3 13 12 30 19 37 7 7 28 43 47
81 19 37 38 67 42 67 4 0 8 5 8 11 0 6 23 59 51 117 80 167 89 188 89 205 0 9
6 22 14 30 8 8 20 33 26 57 6 24 18 53 25 64 7 12 17 38 20 59 4 20 11 37 15
37 4 0 13 27 20 60 7 33 16 60 20 60 4 0 13 28 20 63 7 34 16 67 21 72 4 6 13
39 20 75 7 36 16 67 20 70 4 3 13 46 20 95 7 50 17 93 23 97 16 10 15 1626 0
1636 -6 4 -17 49 -24 100 -8 50 -17 92 -20 92 -4 0 -12 30 -19 68 -8 37 -18
72 -23 78 -5 7 -13 39 -19 73 -6 34 -15 61 -19 61 -4 0 -13 27 -20 60 -7 33
-16 60 -20 60 -4 0 -11 16 -15 36 -3 20 -15 53 -26 73 -10 19 -22 50 -25 68
-3 18 -10 33 -15 33 -4 0 -14 19 -21 43 -6 23 -15 44 -18 47 -3 3 -12 21 -20
40 -26 68 -103 225 -111 228 -4 2 -13 19 -19 38 -6 19 -15 34 -20 34 -5 0 -11
13 -15 30 -4 16 -12 33 -19 37 -7 5 -18 23 -25 41 -8 17 -17 32 -22 32 -4 0
-11 10 -15 23 -4 12 -17 36 -30 53 -13 17 -24 36 -24 41 0 6 -7 13 -15 17 -8
3 -15 10 -15 16 0 6 -11 26 -25 44 -14 18 -25 38 -25 43 0 6 -7 13 -15 17 -8
3 -15 11 -15 18 0 8 -8 21 -17 30 -10 9 -29 33 -43 53 -14 20 -33 44 -42 53
-10 9 -18 22 -18 30 0 7 -7 15 -15 19 -9 3 -23 19 -31 35 -9 17 -31 44 -50 61
-19 18 -34 36 -34 41 0 4 -27 34 -60 66 -33 32 -60 61 -60 64 0 9 -178 186
-187 186 -4 0 -33 27 -65 60 -31 33 -61 60 -65 60 -5 0 -22 15 -38 33 -17 17
-43 38 -58 46 -15 8 -27 18 -27 23 0 5 -11 13 -25 18 -14 5 -25 14 -25 18 0 5
-27 26 -60 47 -33 21 -60 42 -60 46 0 5 -6 9 -13 9 -7 0 -28 13 -47 30 -19 16
-41 29 -47 30 -7 0 -13 5 -13 10 0 6 -11 15 -25 20 -14 5 -25 13 -25 18 0 4
-16 14 -35 21 -19 7 -35 16 -35 20 0 5 -13 14 -30 21 -16 7 -30 16 -30 19 0 4
-16 13 -35 21 -19 8 -35 17 -35 20 0 4 -18 13 -39 20 -22 7 -42 18 -45 25 -2
7 -17 16 -33 20 -15 3 -30 10 -33 14 -7 10 -189 97 -232 111 -21 6 -38 16 -38
21 0 5 -8 9 -18 9 -10 0 -34 8 -55 19 -20 10 -57 25 -82 32 -25 7 -45 16 -45
20 0 3 -25 11 -55 18 -30 7 -55 16 -55 21 0 4 -29 14 -65 21 -36 7 -65 16 -65
20 0 4 -29 13 -65 20 -36 7 -65 16 -65 19 0 4 -36 12 -80 19 -44 8 -80 17 -80
21 0 4 -42 13 -92 20 -51 7 -95 16 -98 20 -3 4 -61 13 -130 21 -69 7 -127 16
-130 20 -8 11 -377 29 -552 28 -84 -1 -225 -6 -313 -11z m2498 -2501 c63 -36
38 -12 357 -332 330 -331 305 -304 319 -348 7 -20 17 -37 24 -40 16 -5 17
-245 1 -255 -6 -4 -15 -22 -19 -40 -4 -18 -13 -36 -21 -39 -8 -3 -14 -10 -14
-17 0 -15 -3322 -3336 -3338 -3336 -7 0 -12 -4 -12 -10 0 -10 -51 -35 -105
-51 -16 -5 -66 -10 -110 -10 -79 -2 -93 2 -184 45 -14 6 -472 458 -1018 1004
-812 811 -998 1002 -1018 1044 -14 28 -25 59 -25 68 0 9 -4 20 -9 26 -10 11 5
195 17 203 5 3 14 21 20 40 16 47 633 662 682 680 19 7 46 18 59 25 13 6 65
11 115 10 82 0 98 -3 158 -32 61 -30 116 -82 638 -606 l572 -572 1260 1259
c819 818 1275 1268 1303 1282 61 33 68 34 190 31 98 -2 115 -5 158 -29z"/>
</g>
</svg>
